<mxfile host="app.diagrams.net" modified="2024-02-28T15:16:02.108Z" agent="Mozilla/5.0 (Windows NT 10.0; Win64; x64) AppleWebKit/537.36 (KHTML, like Gecko) Chrome/122.0.0.0 Safari/537.36 Edg/122.0.0.0" etag="PM86hKC4atTCgufNpd-g" version="23.1.6" type="device">
  <diagram name="Сторінка-1" id="fhrWHgtsgEICmLfOh0h-">
    <mxGraphModel dx="1042" dy="631" grid="1" gridSize="10" guides="1" tooltips="1" connect="1" arrows="1" fold="1" page="1" pageScale="1" pageWidth="827" pageHeight="1169" math="0" shadow="0">
      <root>
        <mxCell id="0" />
        <mxCell id="1" parent="0" />
        <mxCell id="ECvIYYzI3fATd54jcmxr-10" value="MainWindow" style="swimlane;fontStyle=1;align=center;verticalAlign=top;childLayout=stackLayout;horizontal=1;startSize=26;horizontalStack=0;resizeParent=1;resizeParentMax=0;resizeLast=0;collapsible=1;marginBottom=0;whiteSpace=wrap;html=1;" parent="1" vertex="1">
          <mxGeometry x="10" y="210" width="210" height="190" as="geometry">
            <mxRectangle x="174" y="210" width="110" height="30" as="alternateBounds" />
          </mxGeometry>
        </mxCell>
        <mxCell id="ECvIYYzI3fATd54jcmxr-11" value="+QString skinchange&lt;br&gt;+QString backgroundchange&lt;br&gt;+bool controller" style="text;strokeColor=none;fillColor=none;align=left;verticalAlign=top;spacingLeft=4;spacingRight=4;overflow=hidden;rotatable=0;points=[[0,0.5],[1,0.5]];portConstraint=eastwest;whiteSpace=wrap;html=1;" parent="ECvIYYzI3fATd54jcmxr-10" vertex="1">
          <mxGeometry y="26" width="210" height="74" as="geometry" />
        </mxCell>
        <mxCell id="ECvIYYzI3fATd54jcmxr-12" value="" style="line;strokeWidth=1;fillColor=none;align=left;verticalAlign=middle;spacingTop=-1;spacingLeft=3;spacingRight=3;rotatable=0;labelPosition=right;points=[];portConstraint=eastwest;strokeColor=inherit;" parent="ECvIYYzI3fATd54jcmxr-10" vertex="1">
          <mxGeometry y="100" width="210" height="8" as="geometry" />
        </mxCell>
        <mxCell id="ECvIYYzI3fATd54jcmxr-13" value="+void startDoodleGame()&lt;br&gt;+void starteasyGame();&lt;div&gt;+void startmediumGame();&lt;/div&gt;&lt;div&gt;+void starthardGame();&lt;/div&gt;" style="text;strokeColor=none;fillColor=none;align=left;verticalAlign=top;spacingLeft=4;spacingRight=4;overflow=hidden;rotatable=0;points=[[0,0.5],[1,0.5]];portConstraint=eastwest;whiteSpace=wrap;html=1;" parent="ECvIYYzI3fATd54jcmxr-10" vertex="1">
          <mxGeometry y="108" width="210" height="82" as="geometry" />
        </mxCell>
        <mxCell id="ECvIYYzI3fATd54jcmxr-20" value="Platform" style="swimlane;fontStyle=1;align=center;verticalAlign=top;childLayout=stackLayout;horizontal=1;startSize=26;horizontalStack=0;resizeParent=1;resizeParentMax=0;resizeLast=0;collapsible=1;marginBottom=0;whiteSpace=wrap;html=1;" parent="1" vertex="1">
          <mxGeometry x="710" y="40" width="160" height="170" as="geometry" />
        </mxCell>
        <mxCell id="ECvIYYzI3fATd54jcmxr-21" value="#vector&amp;lt;Vector2f&amp;gt; plat;" style="text;strokeColor=none;fillColor=none;align=left;verticalAlign=top;spacingLeft=4;spacingRight=4;overflow=hidden;rotatable=0;points=[[0,0.5],[1,0.5]];portConstraint=eastwest;whiteSpace=wrap;html=1;" parent="ECvIYYzI3fATd54jcmxr-20" vertex="1">
          <mxGeometry y="26" width="160" height="44" as="geometry" />
        </mxCell>
        <mxCell id="ECvIYYzI3fATd54jcmxr-22" value="" style="line;strokeWidth=1;fillColor=none;align=left;verticalAlign=middle;spacingTop=-1;spacingLeft=3;spacingRight=3;rotatable=0;labelPosition=right;points=[];portConstraint=eastwest;strokeColor=inherit;" parent="ECvIYYzI3fATd54jcmxr-20" vertex="1">
          <mxGeometry y="70" width="160" height="8" as="geometry" />
        </mxCell>
        <mxCell id="ECvIYYzI3fATd54jcmxr-23" value="+virtual void createPlatform()&lt;br&gt;+void movePlatforms()&lt;br&gt;&amp;nbsp;virtual void TouchToPlatform()&lt;br&gt;&lt;div&gt;&lt;br&gt;&lt;/div&gt;" style="text;strokeColor=none;fillColor=none;align=left;verticalAlign=top;spacingLeft=4;spacingRight=4;overflow=hidden;rotatable=0;points=[[0,0.5],[1,0.5]];portConstraint=eastwest;whiteSpace=wrap;html=1;" parent="ECvIYYzI3fATd54jcmxr-20" vertex="1">
          <mxGeometry y="78" width="160" height="92" as="geometry" />
        </mxCell>
        <mxCell id="ECvIYYzI3fATd54jcmxr-24" value="WhitePlatform" style="swimlane;fontStyle=1;align=center;verticalAlign=top;childLayout=stackLayout;horizontal=1;startSize=26;horizontalStack=0;resizeParent=1;resizeParentMax=0;resizeLast=0;collapsible=1;marginBottom=0;whiteSpace=wrap;html=1;" parent="1" vertex="1">
          <mxGeometry x="563" y="300" width="173" height="156" as="geometry" />
        </mxCell>
        <mxCell id="ECvIYYzI3fATd54jcmxr-71" value="#bool takenWhitePlatforms[5]" style="text;html=1;align=center;verticalAlign=middle;resizable=0;points=[];autosize=1;strokeColor=none;fillColor=none;" parent="ECvIYYzI3fATd54jcmxr-24" vertex="1">
          <mxGeometry y="26" width="173" height="30" as="geometry" />
        </mxCell>
        <mxCell id="ECvIYYzI3fATd54jcmxr-26" value="" style="line;strokeWidth=1;fillColor=none;align=left;verticalAlign=middle;spacingTop=-1;spacingLeft=3;spacingRight=3;rotatable=0;labelPosition=right;points=[];portConstraint=eastwest;strokeColor=inherit;" parent="ECvIYYzI3fATd54jcmxr-24" vertex="1">
          <mxGeometry y="56" width="173" height="34" as="geometry" />
        </mxCell>
        <mxCell id="ECvIYYzI3fATd54jcmxr-27" value="+void movePlatforms()&lt;br&gt;+void TouchToPlatform() override&lt;br&gt;&lt;div&gt;&lt;br&gt;&lt;/div&gt;" style="text;strokeColor=none;fillColor=none;align=left;verticalAlign=top;spacingLeft=4;spacingRight=4;overflow=hidden;rotatable=0;points=[[0,0.5],[1,0.5]];portConstraint=eastwest;whiteSpace=wrap;html=1;" parent="ECvIYYzI3fATd54jcmxr-24" vertex="1">
          <mxGeometry y="90" width="173" height="66" as="geometry" />
        </mxCell>
        <mxCell id="ECvIYYzI3fATd54jcmxr-32" value="ExtremePlatform" style="swimlane;fontStyle=1;align=center;verticalAlign=top;childLayout=stackLayout;horizontal=1;startSize=26;horizontalStack=0;resizeParent=1;resizeParentMax=0;resizeLast=0;collapsible=1;marginBottom=0;whiteSpace=wrap;html=1;" parent="1" vertex="1">
          <mxGeometry x="740" y="550" width="160" height="140" as="geometry" />
        </mxCell>
        <mxCell id="ECvIYYzI3fATd54jcmxr-34" value="" style="line;strokeWidth=1;fillColor=none;align=left;verticalAlign=middle;spacingTop=-1;spacingLeft=3;spacingRight=3;rotatable=0;labelPosition=right;points=[];portConstraint=eastwest;strokeColor=inherit;" parent="ECvIYYzI3fATd54jcmxr-32" vertex="1">
          <mxGeometry y="26" width="160" height="8" as="geometry" />
        </mxCell>
        <mxCell id="ECvIYYzI3fATd54jcmxr-35" value="+void drawplatforms()&lt;br&gt;+void createplatform(int count)&lt;br&gt;+void moveplatforms()" style="text;strokeColor=none;fillColor=none;align=left;verticalAlign=top;spacingLeft=4;spacingRight=4;overflow=hidden;rotatable=0;points=[[0,0.5],[1,0.5]];portConstraint=eastwest;whiteSpace=wrap;html=1;" parent="ECvIYYzI3fATd54jcmxr-32" vertex="1">
          <mxGeometry y="34" width="160" height="106" as="geometry" />
        </mxCell>
        <mxCell id="ECvIYYzI3fATd54jcmxr-36" value="coordinates" style="swimlane;fontStyle=1;align=center;verticalAlign=top;childLayout=stackLayout;horizontal=1;startSize=26;horizontalStack=0;resizeParent=1;resizeParentMax=0;resizeLast=0;collapsible=1;marginBottom=0;whiteSpace=wrap;html=1;" parent="1" vertex="1">
          <mxGeometry x="20" y="610" width="160" height="90" as="geometry" />
        </mxCell>
        <mxCell id="ECvIYYzI3fATd54jcmxr-37" value="&lt;div&gt;+int x, y, h;&lt;/div&gt;&lt;div&gt;+float dx, dy;&lt;/div&gt;" style="text;strokeColor=none;fillColor=none;align=left;verticalAlign=top;spacingLeft=4;spacingRight=4;overflow=hidden;rotatable=0;points=[[0,0.5],[1,0.5]];portConstraint=eastwest;whiteSpace=wrap;html=1;" parent="ECvIYYzI3fATd54jcmxr-36" vertex="1">
          <mxGeometry y="26" width="160" height="44" as="geometry" />
        </mxCell>
        <mxCell id="ECvIYYzI3fATd54jcmxr-38" value="" style="line;strokeWidth=1;fillColor=none;align=left;verticalAlign=middle;spacingTop=-1;spacingLeft=3;spacingRight=3;rotatable=0;labelPosition=right;points=[];portConstraint=eastwest;strokeColor=inherit;" parent="ECvIYYzI3fATd54jcmxr-36" vertex="1">
          <mxGeometry y="70" width="160" height="20" as="geometry" />
        </mxCell>
        <mxCell id="ECvIYYzI3fATd54jcmxr-61" value="traps" style="swimlane;fontStyle=1;align=center;verticalAlign=top;childLayout=stackLayout;horizontal=1;startSize=26;horizontalStack=0;resizeParent=1;resizeParentMax=0;resizeLast=0;collapsible=1;marginBottom=0;whiteSpace=wrap;html=1;" parent="1" vertex="1">
          <mxGeometry x="260" y="630" width="160" height="106" as="geometry" />
        </mxCell>
        <mxCell id="ECvIYYzI3fATd54jcmxr-63" value="" style="line;strokeWidth=1;fillColor=none;align=left;verticalAlign=middle;spacingTop=-1;spacingLeft=3;spacingRight=3;rotatable=0;labelPosition=right;points=[];portConstraint=eastwest;strokeColor=inherit;" parent="ECvIYYzI3fATd54jcmxr-61" vertex="1">
          <mxGeometry y="26" width="160" height="20" as="geometry" />
        </mxCell>
        <mxCell id="ECvIYYzI3fATd54jcmxr-64" value="+void down()&lt;br&gt;+void createBomb()&lt;br&gt;+void BOOM()" style="text;strokeColor=none;fillColor=none;align=left;verticalAlign=top;spacingLeft=4;spacingRight=4;overflow=hidden;rotatable=0;points=[[0,0.5],[1,0.5]];portConstraint=eastwest;whiteSpace=wrap;html=1;" parent="ECvIYYzI3fATd54jcmxr-61" vertex="1">
          <mxGeometry y="46" width="160" height="60" as="geometry" />
        </mxCell>
        <mxCell id="ECvIYYzI3fATd54jcmxr-66" value="inheritance" style="html=1;verticalAlign=bottom;endArrow=block;curved=0;rounded=0;entryX=1;entryY=0.25;entryDx=0;entryDy=0;exitX=-0.009;exitY=0.171;exitDx=0;exitDy=0;exitPerimeter=0;" parent="1" source="ECvIYYzI3fATd54jcmxr-61" target="ECvIYYzI3fATd54jcmxr-36" edge="1">
          <mxGeometry width="80" relative="1" as="geometry">
            <mxPoint x="310" y="660" as="sourcePoint" />
            <mxPoint x="440" y="490" as="targetPoint" />
          </mxGeometry>
        </mxCell>
        <mxCell id="ECvIYYzI3fATd54jcmxr-67" value="inheritance" style="html=1;verticalAlign=bottom;endArrow=block;curved=0;rounded=0;" parent="1" source="ECvIYYzI3fATd54jcmxr-24" target="ECvIYYzI3fATd54jcmxr-20" edge="1">
          <mxGeometry width="80" relative="1" as="geometry">
            <mxPoint x="329" y="628" as="sourcePoint" />
            <mxPoint x="240" y="603" as="targetPoint" />
          </mxGeometry>
        </mxCell>
        <mxCell id="ECvIYYzI3fATd54jcmxr-68" value="inheritance" style="html=1;verticalAlign=bottom;endArrow=block;curved=0;rounded=0;" parent="1" source="ECvIYYzI3fATd54jcmxr-72" target="ECvIYYzI3fATd54jcmxr-20" edge="1">
          <mxGeometry width="80" relative="1" as="geometry">
            <mxPoint x="655.0943396226414" y="295" as="sourcePoint" />
            <mxPoint x="472" y="230" as="targetPoint" />
          </mxGeometry>
        </mxCell>
        <mxCell id="ECvIYYzI3fATd54jcmxr-69" value="inheritance" style="html=1;verticalAlign=bottom;endArrow=block;curved=0;rounded=0;exitX=0.75;exitY=0;exitDx=0;exitDy=0;" parent="1" source="ECvIYYzI3fATd54jcmxr-32" target="ECvIYYzI3fATd54jcmxr-24" edge="1">
          <mxGeometry width="80" relative="1" as="geometry">
            <mxPoint x="458" y="325" as="sourcePoint" />
            <mxPoint x="482" y="240" as="targetPoint" />
          </mxGeometry>
        </mxCell>
        <mxCell id="ECvIYYzI3fATd54jcmxr-70" value="inheritance" style="html=1;verticalAlign=bottom;endArrow=block;curved=0;rounded=0;exitX=0.878;exitY=0.017;exitDx=0;exitDy=0;exitPerimeter=0;" parent="1" source="ECvIYYzI3fATd54jcmxr-32" target="ECvIYYzI3fATd54jcmxr-75" edge="1">
          <mxGeometry width="80" relative="1" as="geometry">
            <mxPoint x="468" y="335" as="sourcePoint" />
            <mxPoint x="620" y="448.72019765287223" as="targetPoint" />
          </mxGeometry>
        </mxCell>
        <mxCell id="ECvIYYzI3fATd54jcmxr-72" value="MovingPlatform" style="swimlane;fontStyle=1;align=center;verticalAlign=top;childLayout=stackLayout;horizontal=1;startSize=26;horizontalStack=0;resizeParent=1;resizeParentMax=0;resizeLast=0;collapsible=1;marginBottom=0;whiteSpace=wrap;html=1;" parent="1" vertex="1">
          <mxGeometry x="890" y="290" width="173" height="156" as="geometry" />
        </mxCell>
        <mxCell id="ECvIYYzI3fATd54jcmxr-73" value="#vector&amp;lt;int&amp;gt; direction" style="text;html=1;align=center;verticalAlign=middle;resizable=0;points=[];autosize=1;strokeColor=none;fillColor=none;" parent="ECvIYYzI3fATd54jcmxr-72" vertex="1">
          <mxGeometry y="26" width="173" height="30" as="geometry" />
        </mxCell>
        <mxCell id="ECvIYYzI3fATd54jcmxr-74" value="" style="line;strokeWidth=1;fillColor=none;align=left;verticalAlign=middle;spacingTop=-1;spacingLeft=3;spacingRight=3;rotatable=0;labelPosition=right;points=[];portConstraint=eastwest;strokeColor=inherit;" parent="ECvIYYzI3fATd54jcmxr-72" vertex="1">
          <mxGeometry y="56" width="173" height="34" as="geometry" />
        </mxCell>
        <mxCell id="ECvIYYzI3fATd54jcmxr-75" value="+void movePlatforms() override&lt;br&gt;+void update()" style="text;strokeColor=none;fillColor=none;align=left;verticalAlign=top;spacingLeft=4;spacingRight=4;overflow=hidden;rotatable=0;points=[[0,0.5],[1,0.5]];portConstraint=eastwest;whiteSpace=wrap;html=1;" parent="ECvIYYzI3fATd54jcmxr-72" vertex="1">
          <mxGeometry y="90" width="173" height="66" as="geometry" />
        </mxCell>
        <mxCell id="ORWau2D7rXOtBypaRqR--2" value="1" style="endArrow=open;html=1;endSize=12;startArrow=diamondThin;startSize=14;startFill=1;edgeStyle=orthogonalEdgeStyle;align=left;verticalAlign=bottom;rounded=0;exitX=1.005;exitY=0.083;exitDx=0;exitDy=0;exitPerimeter=0;entryX=0.005;entryY=0.115;entryDx=0;entryDy=0;entryPerimeter=0;" parent="1" source="ORWau2D7rXOtBypaRqR--7" target="ECvIYYzI3fATd54jcmxr-24" edge="1">
          <mxGeometry x="-1" y="3" relative="1" as="geometry">
            <mxPoint x="330" y="430" as="sourcePoint" />
            <mxPoint x="490" y="430" as="targetPoint" />
          </mxGeometry>
        </mxCell>
        <mxCell id="ORWau2D7rXOtBypaRqR--3" value="1" style="endArrow=open;html=1;endSize=12;startArrow=diamondThin;startSize=14;startFill=1;edgeStyle=orthogonalEdgeStyle;align=left;verticalAlign=bottom;rounded=0;exitX=0.5;exitY=0;exitDx=0;exitDy=0;entryX=0;entryY=0;entryDx=0;entryDy=0;" parent="1" source="ORWau2D7rXOtBypaRqR--7" target="ECvIYYzI3fATd54jcmxr-20" edge="1">
          <mxGeometry x="-1" y="3" relative="1" as="geometry">
            <mxPoint x="231" y="236" as="sourcePoint" />
            <mxPoint x="381" y="328" as="targetPoint" />
          </mxGeometry>
        </mxCell>
        <mxCell id="ORWau2D7rXOtBypaRqR--4" value="1" style="endArrow=open;html=1;endSize=12;startArrow=diamondThin;startSize=14;startFill=1;edgeStyle=orthogonalEdgeStyle;align=left;verticalAlign=bottom;rounded=0;exitX=0.815;exitY=-0.003;exitDx=0;exitDy=0;exitPerimeter=0;entryX=0;entryY=0;entryDx=0;entryDy=0;" parent="1" source="ORWau2D7rXOtBypaRqR--7" target="ECvIYYzI3fATd54jcmxr-72" edge="1">
          <mxGeometry x="-1" y="3" relative="1" as="geometry">
            <mxPoint x="241" y="246" as="sourcePoint" />
            <mxPoint x="391" y="338" as="targetPoint" />
          </mxGeometry>
        </mxCell>
        <mxCell id="ORWau2D7rXOtBypaRqR--5" value="1" style="endArrow=open;html=1;endSize=12;startArrow=diamondThin;startSize=14;startFill=1;edgeStyle=orthogonalEdgeStyle;align=left;verticalAlign=bottom;rounded=0;exitX=0.745;exitY=0.996;exitDx=0;exitDy=0;exitPerimeter=0;entryX=0.058;entryY=-0.026;entryDx=0;entryDy=0;entryPerimeter=0;" parent="1" source="ORWau2D7rXOtBypaRqR--9" target="ECvIYYzI3fATd54jcmxr-61" edge="1">
          <mxGeometry x="-1" y="3" relative="1" as="geometry">
            <mxPoint x="251" y="256" as="sourcePoint" />
            <mxPoint x="401" y="348" as="targetPoint" />
          </mxGeometry>
        </mxCell>
        <mxCell id="ORWau2D7rXOtBypaRqR--6" value="1" style="endArrow=open;html=1;endSize=12;startArrow=diamondThin;startSize=14;startFill=1;edgeStyle=orthogonalEdgeStyle;align=left;verticalAlign=bottom;rounded=0;exitX=0.95;exitY=1.004;exitDx=0;exitDy=0;exitPerimeter=0;entryX=-0.003;entryY=0.111;entryDx=0;entryDy=0;entryPerimeter=0;" parent="1" source="ORWau2D7rXOtBypaRqR--9" target="ECvIYYzI3fATd54jcmxr-32" edge="1">
          <mxGeometry x="-1" y="3" relative="1" as="geometry">
            <mxPoint x="261" y="266" as="sourcePoint" />
            <mxPoint x="411" y="358" as="targetPoint" />
          </mxGeometry>
        </mxCell>
        <mxCell id="ORWau2D7rXOtBypaRqR--7" value="CreateGame" style="swimlane;fontStyle=1;align=center;verticalAlign=top;childLayout=stackLayout;horizontal=1;startSize=26;horizontalStack=0;resizeParent=1;resizeParentMax=0;resizeLast=0;collapsible=1;marginBottom=0;whiteSpace=wrap;html=1;" parent="1" vertex="1">
          <mxGeometry x="310" y="340" width="160" height="140" as="geometry" />
        </mxCell>
        <mxCell id="ORWau2D7rXOtBypaRqR--8" value="" style="line;strokeWidth=1;fillColor=none;align=left;verticalAlign=middle;spacingTop=-1;spacingLeft=3;spacingRight=3;rotatable=0;labelPosition=right;points=[];portConstraint=eastwest;strokeColor=inherit;" parent="ORWau2D7rXOtBypaRqR--7" vertex="1">
          <mxGeometry y="26" width="160" height="8" as="geometry" />
        </mxCell>
        <mxCell id="ORWau2D7rXOtBypaRqR--9" value="+void drawplatforms()&lt;br&gt;+void createplatform(int count)&lt;br&gt;+void moveplatforms()" style="text;strokeColor=none;fillColor=none;align=left;verticalAlign=top;spacingLeft=4;spacingRight=4;overflow=hidden;rotatable=0;points=[[0,0.5],[1,0.5]];portConstraint=eastwest;whiteSpace=wrap;html=1;" parent="ORWau2D7rXOtBypaRqR--7" vertex="1">
          <mxGeometry y="34" width="160" height="106" as="geometry" />
        </mxCell>
        <mxCell id="ORWau2D7rXOtBypaRqR--10" value="" style="endArrow=open;endFill=1;endSize=12;html=1;rounded=0;exitX=1.006;exitY=0.176;exitDx=0;exitDy=0;exitPerimeter=0;" parent="1" source="ECvIYYzI3fATd54jcmxr-13" target="ORWau2D7rXOtBypaRqR--7" edge="1">
          <mxGeometry width="160" relative="1" as="geometry">
            <mxPoint x="370" y="440" as="sourcePoint" />
            <mxPoint x="340" y="370" as="targetPoint" />
          </mxGeometry>
        </mxCell>
        <mxCell id="S9PJm-VFzBKxBoPFO_PH-1" value="Abstract_platform" style="swimlane;fontStyle=1;align=center;verticalAlign=top;childLayout=stackLayout;horizontal=1;startSize=26;horizontalStack=0;resizeParent=1;resizeParentMax=0;resizeLast=0;collapsible=1;marginBottom=0;whiteSpace=wrap;html=1;" vertex="1" parent="1">
          <mxGeometry x="970" y="40" width="160" height="170" as="geometry" />
        </mxCell>
        <mxCell id="S9PJm-VFzBKxBoPFO_PH-2" value="#vector&amp;lt;Vector2f&amp;gt; plat;" style="text;strokeColor=none;fillColor=none;align=left;verticalAlign=top;spacingLeft=4;spacingRight=4;overflow=hidden;rotatable=0;points=[[0,0.5],[1,0.5]];portConstraint=eastwest;whiteSpace=wrap;html=1;" vertex="1" parent="S9PJm-VFzBKxBoPFO_PH-1">
          <mxGeometry y="26" width="160" height="44" as="geometry" />
        </mxCell>
        <mxCell id="S9PJm-VFzBKxBoPFO_PH-3" value="" style="line;strokeWidth=1;fillColor=none;align=left;verticalAlign=middle;spacingTop=-1;spacingLeft=3;spacingRight=3;rotatable=0;labelPosition=right;points=[];portConstraint=eastwest;strokeColor=inherit;" vertex="1" parent="S9PJm-VFzBKxBoPFO_PH-1">
          <mxGeometry y="70" width="160" height="8" as="geometry" />
        </mxCell>
        <mxCell id="S9PJm-VFzBKxBoPFO_PH-4" value="+virtual void createPlatform()&lt;br&gt;+void movePlatforms()&lt;br&gt;&amp;nbsp;virtual void TouchToPlatform()&lt;br&gt;&lt;div&gt;&lt;br&gt;&lt;/div&gt;" style="text;strokeColor=none;fillColor=none;align=left;verticalAlign=top;spacingLeft=4;spacingRight=4;overflow=hidden;rotatable=0;points=[[0,0.5],[1,0.5]];portConstraint=eastwest;whiteSpace=wrap;html=1;" vertex="1" parent="S9PJm-VFzBKxBoPFO_PH-1">
          <mxGeometry y="78" width="160" height="92" as="geometry" />
        </mxCell>
        <mxCell id="S9PJm-VFzBKxBoPFO_PH-5" value="inheritance" style="html=1;verticalAlign=bottom;endArrow=block;curved=0;rounded=0;" edge="1" parent="1" source="ECvIYYzI3fATd54jcmxr-21" target="S9PJm-VFzBKxBoPFO_PH-1">
          <mxGeometry width="80" relative="1" as="geometry">
            <mxPoint x="927" y="300" as="sourcePoint" />
            <mxPoint x="865" y="220" as="targetPoint" />
          </mxGeometry>
        </mxCell>
      </root>
    </mxGraphModel>
  </diagram>
</mxfile>
